<svg t="1743855752432" class="icon" viewBox="0 0 1059 1024" version="1.1" xmlns="http://www.w3.org/2000/svg" p-id="23036" width="200" height="200"><path d="M933.144238 166.132349H656.55088v71.793358l276.467404-0.629766c15.870111 0 30.480689 12.847232 30.480689 29.473063v654.705043c0 7.683149-3.022878 14.862485-8.312915 20.530381-5.667897 5.667897-12.847232 9.824354-20.530381 9.824354l-830.031981 1.007626c-15.870111 0-29.473063-12.847232-29.473062-28.843296v-654.95695c0-7.683149 2.645018-14.862485 7.683148-20.530381 5.667897-5.667897 12.343419-10.83198 20.530382-10.83198h277.097171l0.629766-71.163592h-277.097171c-55.671341 0-101.140467 46.3508-100.510701 102.525953v654.705043c0 27.457811 11.839606 52.648462 30.984502 71.793358 19.144895 19.144895 44.335547 28.465437 71.793358 28.465437H935.663303c27.457811 0 52.648462-11.335793 71.793358-30.480689s27.457811-44.965314 27.45781-71.793358l0.629767-655.208856c-0.251907-56.0492-46.224846-100.384748-102.4-100.384748z m0 0" fill="" p-id="23037"></path><path d="M824.320621 475.851415H606.043623c-8.312915 0-16.499877 3.652645-22.167774 9.824354-5.667897 6.297663-9.320541 13.854859-9.320541 22.167773 0 8.312915 3.022878 15.870111 9.320541 22.167774 5.667897 5.667897 13.476999 8.690775 22.167774 8.690775h218.276998c17.507503 0 31.488315-13.854859 31.488315-31.488315-0.125953-17.507503-13.980812-31.362362-31.488315-31.362361zM605.665763 737.582288c-16.877737 0-31.488315 13.854859-31.488315 31.488315 0 8.312915 3.022878 16.499877 9.320541 22.167773 5.667897 5.667897 13.854859 9.320541 22.167774 9.320542h87.663468c8.312915 0 16.499877-3.022878 22.167774-9.320542 5.667897-6.297663 9.320541-13.854859 9.320541-22.167773 0.629766-16.877737-13.476999-31.488315-31.488315-31.488315H605.665763zM846.488395 660.37294c5.667897-6.297663 9.320541-13.854859 9.320541-22.167774 0-8.312915-3.022878-16.499877-9.320541-22.167774-5.667897-5.667897-13.854859-9.320541-22.167774-9.320541l-218.276998 0.503813c-16.877737 0-31.488315 13.854859-31.488315 31.488315 0 17.507503 13.854859 31.488315 31.488315 31.488315h218.276998c8.186962-0.125953 16.499877-3.778598 22.167774-9.824354zM648.489871 261.856827h-16.877737V113.861747c0-62.472817-51.01107-113.861747-114.113653-113.861747-30.228782 0-58.694219 11.839606-80.861993 33.503567-21.789914 21.538007-32.999754 50.003444-32.999754 80.987946l0.629767 147.869127h-16.877737c-14.484625 0.629766-26.450185 12.343419-26.450184 26.828044 0 7.305289 2.645018 13.854859 7.683148 18.515129 5.290037 5.290037 11.839606 7.683149 18.515129 7.683149l261.98278-0.629766c14.484625 0 26.828044-11.839606 26.828045-26.828045-0.629766-14.484625-12.343419-26.072325-27.457811-26.072324z m-191.574908 0l-0.629766-147.869127c0.251907-15.366298 6.297663-30.858549 17.75941-42.698155 11.335793-11.335793 26.828044-17.507503 42.698155-17.507503 15.870111 0 30.984502 6.297663 42.698155 17.507503 11.335793 11.335793 18.137269 26.828044 18.137269 42.698155v104.541205c0.629766 0 1.007626 43.327921 1.007626 43.327922h-121.670849z" fill="" p-id="23038"></path><path d="M517.750388 140.689791c14.484625 0 26.828044-11.839606 26.828044-26.828044-0.629766-7.305289-3.652645-13.476999-8.312915-18.51513-5.290037-5.290037-11.839606-8.312915-19.144896-7.683148-14.484625 0-26.450185 11.839606-26.450184 26.828044 0.125953 14.862485 12.217466 26.198278 27.079951 26.198278z m0 0" fill="" p-id="23039"></path><path d="M380.335381 579.510947c33.755474-22.167774 56.0492-61.339237 58.31636-102.903813 0.125953-0.881673 0.125953-1.763346 0.125953-2.770972 0-1.007626 0-1.889299-0.125953-2.770971-3.526691-68.01476-55.923247-119.40369-124.315868-121.670849-69.274293-2.267159-122.300615 58.442312-124.44182 124.44182-1.385486 44.461501 23.049446 82.247478 58.190406 104.163346C156.642393 610.621402 100.593192 712.391636 121.249527 811.390898c1.385486 6.801476 8.438868 11.461747 15.114391 11.461747h355.817958c6.675523 0 13.728905-4.786224 15.114391-11.461747 21.412054-102.02214-35.518819-198.62829-126.960886-231.879951zM221.256415 473.836162c-1.637392-52.018696 43.579828-91.442066 93.079458-93.079458 52.018696-1.637392 91.442066 43.579828 93.079459 93.079458-1.637392 52.018696-41.060763 91.442066-93.079459 93.079459-52.018696 1.763346-91.56802-43.579828-93.079458-93.079459z m93.079458 124.819681c103.533579-2.015252 178.349815 94.842804 164.872817 192.83444H149.463057c-14.232718-100.258795 61.717097-190.819188 164.872816-192.83444z m0 0" fill="" p-id="23040"></path></svg>