<svg t="1743853532103" class="icon" viewBox="0 0 1024 1024" version="1.1" xmlns="http://www.w3.org/2000/svg" p-id="11557" width="200" height="200"><path d="M992.269853 906.899172c0 45.329353-37.098202 82.435557-82.431556 82.435558h-387.3963c-45.329353 0-82.423553-37.098202-82.423552-82.435558V111.514689c0-45.333354 37.0942-82.427554 82.431555-82.427554h387.400302c45.325351 0 82.423553 37.0942 82.423553 82.427554v795.388485l-0.004002-0.004002z" fill="#F0F0FF" p-id="11558"></path><path d="M974.26296 906.899172c0 35.5256-28.903064 64.428664-64.424663 64.428664h-387.3963c-35.517597 0-64.41666-28.903064-64.416659-64.428664V111.514689c0-35.521598 28.903064-64.420661 64.424662-64.420661h387.400302c35.517597 0 64.41666 28.899063 64.41666 64.420661v795.388485l18.006893-18.006893h-18.006893c-0.004002-0.004002-0.004002 18.002892-0.004002 18.002891z m36.02179 0V111.514689c0-55.377199-45.053247-100.434448-100.430446-100.434447h-387.400302c-55.381201 0-100.438449 45.053247-100.438449 100.434447v795.388485c0 55.385202 45.053247 100.442451 100.430446 100.44245h387.3963c55.381201 0 100.438449-45.057248 100.438449-100.44245l-18.006893 18.006893h18.006893l0.004002-18.010895z" fill="#6E6E96" p-id="11559"></path><path d="M992.269853 906.899172c0 45.329353-37.098202 82.435557-82.431556 82.435558h-387.3963c-45.329353 0-82.423553-37.098202-82.423552-82.435558V111.514689c0-45.333354 37.0942-82.427554 82.431555-82.427554h387.400302c45.325351 0 82.423553 37.0942 82.423553 82.427554v795.388485l-0.004002-0.004002z" fill="#F0F0FF" p-id="11560"></path><path d="M440.030449 134.063321h552.251409v742.292159h-552.251409z" fill="#B8D4E3" p-id="11561"></path><path d="M489.053216 152.070214h515.229236v-34.01302H452.035045v742.292158h37.018171z" fill="#FFFFFF" opacity=".29" p-id="11562"></path><path d="M909.858305 27.754625h-387.400302c-22.588647 0-43.120507 9.215528-58.050222 24.061211a77.041492 77.041492 0 0 1 43.932818-13.753265h364.939704c32.584474 0 48.590601 20.371799 60.062992 48.97875H442.823518v28.666974h492.096381v36.353916H489.053216v33.016639h445.870685v679.908278h3.993528c0 42.704348-34.945378 77.653727-77.649725 77.653727H508.340599c-29.419262 0-55.141109-16.590351-68.306148-40.863643v3.781447c0 45.329353 37.0942 82.435557 82.423552 82.435558h387.396301c45.333354 0 82.431556-37.098202 82.431555-82.435558h0.008003V110.182179c-0.016006-45.333354-37.110206-82.427554-82.435557-82.427554z" fill="#6E6E96" opacity=".15" p-id="11563"></path><path d="M450.034279 894.362373h286.237575v25.005573h-286.237575z" fill="#FFFFFF" p-id="11564"></path><path d="M440.030449 152.070214h552.251409l-18.006893-18.006893v742.292159l18.006893-18.006893h-552.251409l18.006893 18.006893V134.063321l-18.006893 18.006893z m0 742.292159h570.258302V116.056428h-588.265195v778.305945h18.006893z" fill="#6E6E96" p-id="11565"></path><path d="M471.502497 37.030176h244.093442v28.010722h-244.093442z" fill="#FFFFFF" p-id="11566"></path><path d="M974.26296 906.899172c0 35.5256-28.903064 64.428664-64.424663 64.428664h-387.3963c-35.517597 0-64.41666-28.903064-64.416659-64.428664V111.514689c0-35.521598 28.903064-64.420661 64.424662-64.420661h387.400302c35.517597 0 64.41666 28.899063 64.41666 64.420661v795.388485l18.006893-18.006893h-18.006893c-0.004002-0.004002-0.004002 18.002892-0.004002 18.002891z m36.02179 0V111.514689c0-55.377199-45.053247-100.434448-100.430446-100.434447h-387.400302c-55.381201 0-100.438449 45.053247-100.438449 100.434447v795.388485c0 55.385202 45.053247 100.442451 100.430446 100.44245h387.3963c55.381201 0 100.438449-45.057248 100.438449-100.44245l-18.006893 18.006893h18.006893l0.004002-18.010895z" fill="#6E6E96" p-id="11567"></path><path d="M499.709295 847.340372h-10.656079v-662.253518h400.045142z" fill="#FFFFFF" opacity=".26" p-id="11568"></path><path d="M458.037342 826.120249l111.98687-162.062039s182.533876-39.491118 177.067784-177.067784l-1.368524-58.066228s52.239998-20.992036 40.303429-87.001306l-119.629796 89.646318-138.39698 194.474447-84.032169 138.052849 14.069386 62.023743z" fill="#B8D4E3" p-id="11569"></path><path d="M489.057217 185.086854v232.757102l170.065103-232.757102z" fill="#FFFFFF" opacity=".45" p-id="11570"></path><path d="M511.073645 828.012974h423.846254v30.335613l-448.219584 2.000765z" fill="#6E6E96" opacity=".15" p-id="11571"></path><path d="M513.642629 384.187072v205.842799l-24.589413 52.019914 0.004001-224.205829z" fill="#FFFFFF" opacity=".45" p-id="11572"></path><path d="M517.66817 599.609538c47.902338 17.382654 93.003603-13.161038 93.003603-13.161038s10.047846-4.64978 20.131706-9.207525c37.238255-16.934483 58.834523-49.81507 70.274903-86.084954 4.853858-15.329868 0.876335-36.778079-15.085775-42.720354-27.830654-10.383975-40.391462 39.551141-70.182867 51.43569-7.074708 2.817078-11.396363-5.918266-8.859392-9.283554 28.759009-41.755985 90.51465-80.56284 127.912967-113.543466 10.275934-7.762972 17.146564-12.932951 17.146564-12.932951s22.952787-15.886081 14.697626-38.262647c-16.918477-45.773523-71.503372-2.100804-71.503372-2.100804L619.731241 373.903135c-154.551164-154.555166-236.334472-36.3099-236.334472-36.3099-17.186579 27.594564-17.186579 27.594564-27.306453 67.909997-6.110339 24.405343-3.517346 55.885394-30.763777 92.099256l-27.550547 36.62202 171.817774 129.265484 48.074404-63.880454" fill="#FFC9C9" p-id="11573"></path><path d="M511.525818 616.540019c55.893397 20.279763 107.096998-13.721253 109.249823-15.17781a18.114935 18.114935 0 0 1-2.53297 1.428547l19.971645-9.131496c37.766457-17.178576 65.425046-50.747427 80.042642-97.081164 7.534884-23.801111-0.252097-55.437222-25.969942-65.012887-28.138772-10.50002-46.085642 12.088628-59.178654 28.582941-7.682941 9.675704-15.629983 19.683535-23.961173 23.008809 4.505725-1.792686 10.107869-0.244093 13.052997 3.60538 3.025158 3.94551 2.673023 9.971817-0.844323 14.653609l0.436167-0.608233c18.138944-26.338083 52.848231-53.164352 83.471954-76.833412 15.089777-11.668467 29.351236-22.684684 41.519894-33.420794a17.130558 17.130558 0 0 1-1.060406 0.860329l17.118553-12.916945c-0.196075 0.148057-0.380146 0.280107-0.584223 0.41616 11.916562-8.247157 31.704137-31.247962 21.348172-59.302702-7.598909-20.567874-21.144094-28.202796-31.171933-30.991864-30.415643-8.443232-64.668756 18.014896-68.474213 21.064063a18.126939 18.126939 0 0 1 1.284492-0.936358l-75.480895 50.159201a18.002892 18.002892 0 0 1 22.696689 2.260866c-60.823284-60.823284-119.077584-89.190143-173.150284-84.29627-58.850529 5.322037-89.450243 48.638619-90.72273 50.483326a11.252308 11.252308 0 0 0-0.472181 0.724277c-18.15495 29.147158-18.983267 31.195942-29.487288 73.043962-1.752671 6.982673-2.801072 13.989355-3.9175 21.412197-3.00515 20.051676-6.110339 40.775609-23.765097 64.244594l-27.554549 36.626021a18.010895 18.010895 0 0 0 3.569367 25.217653l171.817774 129.261483a18.006893 18.006893 0 0 0 25.217653-3.565365l48.062399-63.880454a17.99889 17.99889 0 0 0-3.569366-25.213652 17.99889 17.99889 0 0 0-25.213652 3.569366l-48.062399 63.876453a18.006893 18.006893 0 0 1 25.213652-3.569366L308.608139 519.839001a18.006893 18.006893 0 0 1 3.565365 25.213652l27.550547-36.622019c23.140859-30.759775 27.282444-58.366343 30.607717-80.554838 0.980375-6.5305 1.908731-12.700862 3.229236-17.982884 9.431611-37.574384 9.431611-37.574384 25.125618-62.77203a15.065767 15.065767 0 0 1-0.476182 0.724277c0.856328-1.20046 22.916773-31.612102 64.932857-35.145454 42.78838-3.597377 91.186907 21.280146 143.85507 73.944307a18.006893 18.006893 0 0 0 22.696688 2.264867l75.480895-50.159201c0.440169-0.292112 0.872334-0.604231 1.284492-0.936359 9.623684-7.618917 27.646583-16.918477 36.353917-14.469539 1.040398 0.28811 4.209611 1.180452 7.010683 8.755352 3.269252 8.867395-7.742964 16.982501-8.207141 17.322631a16.738408 16.738408 0 0 0-0.428164 0.31212l-17.174575 12.95696c-0.368141 0.272104-0.712273 0.560214-1.056404 0.860329-11.296324 9.959813-25.101609 20.631898-39.723207 31.928222-32.712523 25.281678-69.782714 53.936648-91.11488 84.900501 0.140054-0.20808 0.28811-0.412158 0.436167-0.604231-6.142351 8.171128-5.734195 20.039671 1.012388 28.859048a24.597416 24.597416 0 0 0 28.903064 7.979054c17.242601-6.882635 28.706989-21.320162 38.826864-34.069042 6.578518-8.275168 14.761651-18.587115 18.399043-17.230596 4.645778 1.728662 6.802604 12.220678 4.213613 20.411814-11.628452 36.870114-32.00025 62.135786-60.567186 75.12876l-20.243749 9.255543a17.414667 17.414667 0 0 0-2.53297 1.420544c-0.316121 0.212081-38.390696 25.0776-76.77339 11.144266a18.006893 18.006893 0 1 0-12.268697 33.864964z" fill="#6E6E96" p-id="11574"></path><path d="M302.957976 1007.377637c50.899485-53.044306 120.021946-235.506155 216.498879-363.75525 37.938523-93.007604-138.128877-232.008816-211.236865-158.904831-103.455604 78.902205-207.327368 213.961907-282.604184 314.036217" fill="#F0F0FF" p-id="11575"></path><path d="M424.952677 503.748841l-0.040015-0.05202c2.793069 3.197224 67.853975 79.042258 18.090925 138.136881-66.285375 78.718134-149.617275 342.519121-153.038585 353.067158l47.842315-0.136052c0.808309-2.492954 106.592805-250.431868 166.863877-322.003266 61.191425-72.663817-17.438676-147.772569-50.687403-185.446992l-29.031114 16.434291z" fill="#6E6E96" opacity=".12" p-id="11576"></path><path d="M109.848051 862.134036s178.736423-344.127736 260.09957-337.461185 94.704254 57.357957 88.0337 84.032169c0 0 15.96211-148.212738-114.731921-124.127518-130.69003 24.08522-303.244086 324.996413-303.244085 324.996413" fill="#FFFFFF" opacity=".64" p-id="11577"></path><path d="M315.95095 1019.842408c25.697837-26.782253 53.088323-79.222327 87.757595-145.615743 37.446335-71.715454 79.890583-152.986565 130.137818-219.788138a17.846832 17.846832 0 0 0 2.280873-4.025541c24.701456-60.555181-23.128854-132.602762-83.14783-172.470023-60.587194-40.247407-120.934295-42.52828-157.49229-5.966284a17.966878 17.966878 0 0 1 1.812694-1.584607c-102.211128 77.945839-201.257044 204.770389-286.073512 317.529554l28.779017 21.648287c60.219053-80.058647 172.313964-229.079695 279.134856-310.538878a17.966878 17.966878 0 0 0 1.812694-1.584606c28.366859-28.366859 78.113903-12.080625 112.098913 10.500019 46.649858 30.987863 86.941282 86.685184 69.734695 128.873335 0.584224-1.432548 1.352518-2.785066 2.280873-4.025541-52.019914 69.150472-95.192441 151.818118-133.283022 224.75804-32.020258 61.315472-59.678846 114.279748-81.819322 137.35258l25.985948 24.937546z" fill="#6E6E96" p-id="11578"></path></svg>