<svg t="1743855709556" class="icon" viewBox="0 0 1024 1024" version="1.1" xmlns="http://www.w3.org/2000/svg" p-id="21984" width="200" height="200"><path d="M887.296 692.736c-42.496-24.576-94.208-17.92-129.024 12.8l-52.736-30.72v-151.552c0-15.872-8.192-30.208-22.016-37.888L547.84 407.04V339.968c44.032-14.848 75.776-56.832 75.776-105.984 0-61.952-50.176-112.128-112.128-112.128S399.36 172.032 399.36 233.984c0 49.152 31.744 91.136 75.776 105.984v67.072L339.968 484.864c-13.824 7.68-22.016 22.528-22.016 37.888v151.552l-52.736 30.72c-34.816-30.72-86.528-37.376-129.024-12.8-53.248 30.72-71.68 99.328-40.96 152.576 30.72 53.248 98.816 71.68 152.064 40.96 42.496-24.576 62.464-72.704 53.76-118.784l48.64-28.16 140.288 80.896c6.656 4.096 14.336 6.144 22.016 6.144s15.36-2.048 22.016-6.144l140.288-80.896 48.64 28.16c-9.216 45.568 11.264 94.208 53.76 118.784 53.248 30.72 121.344 12.8 152.064-40.96 30.208-53.248 11.776-121.344-41.472-152.064zM231.936 860.16c-38.912 22.528-89.6 9.216-111.616-30.208-22.528-38.912-9.216-89.088 30.208-111.616 38.912-22.528 89.6-9.216 111.616 30.208 22.528 38.912 9.216 89.088-30.208 111.616zM430.08 233.984c0-45.056 36.864-81.92 81.92-81.92s81.92 36.864 81.92 81.92-36.864 81.92-81.92 81.92-81.92-36.864-81.92-81.92z m236.544 464.896l-157.184 90.624-157.184-90.624v-180.736l157.184-90.624 157.184 90.624v180.736z m236.032 131.584c-22.528 38.912-72.704 52.736-111.616 30.208-38.912-22.528-52.736-72.704-30.208-112.128 22.528-38.912 72.704-52.736 111.616-30.208 39.424 22.528 52.736 72.704 30.208 112.128z" fill="#DD5B5B" p-id="21985"></path></svg>